PathFileType	4	(X/Y/Z)	 s02c0203.trc
DataRate	CameraRate	NumFrames	NumMarkers	Units	OrigDataRate	OrigDataStartFrame	OrigNumFrames
200	200	5	51	mm	200	751	2000
Frame#	Time	racr			lacr			c7			jug			rlel			rdr			llel			ldr			s2			lic			ric			lasi			rasi			rpsi			lpsi			rgt			lgt			rth1			rth2			rth3			rth4			rlfc			rmfc			rsh1			rsh2			rsh3			rsh4			rlmal			rmmal			rcal			rtoe			rmt5			rmt1			lth1			lth2			lth4			lth3			llfc			lmfc			lsh1			lsh2			lsh3			lsh4			llmal			lmmal			lcal			ltoe			lmt5			SBIKE			LBIKE			RBIKE			
		X1	Y1	Z1	X2	Y2	Z2	X3	Y3	Z3	X4	Y4	Z4	X5	Y5	Z5	X6	Y6	Z6	X7	Y7	Z7	X8	Y8	Z8	X9	Y9	Z9	X10	Y10	Z10	X11	Y11	Z11	X12	Y12	Z12	X13	Y13	Z13	X14	Y14	Z14	X15	Y15	Z15	X16	Y16	Z16	X17	Y17	Z17	X18	Y18	Z18	X19	Y19	Z19	X20	Y20	Z20	X21	Y21	Z21	X22	Y22	Z22	X23	Y23	Z23	X24	Y24	Z24	X25	Y25	Z25	X26	Y26	Z26	X27	Y27	Z27	X28	Y28	Z28	X29	Y29	Z29	X30	Y30	Z30	X31	Y31	Z31	X32	Y32	Z32	X33	Y33	Z33	X34	Y34	Z34	X35	Y35	Z35	X36	Y36	Z36	X37	Y37	Z37	X38	Y38	Z38	X39	Y39	Z39	X40	Y40	Z40	X41	Y41	Z41	X42	Y42	Z42	X43	Y43	Z43	X44	Y44	Z44	X45	Y45	Z45	X46	Y46	Z46	X47	Y47	Z47	X48	Y48	Z48	X49	Y49	Z49	X50	Y50	Z50	X51	Y51	Z51	
751	3.7550	517.938035	1245.745155	-104.897343	545.208617	1252.000592	-441.811909	522.056069	1294.873781	-278.691015	447.469739	1173.499409	-278.985106	531.884761	995.537554	-13.820161	691.427536	886.564578	-108.154202	524.601428	1013.163074	-596.613742	687.940599	885.351087	-519.195438	2.700791	1119.363657	-308.127026	119.434001	1125.289076	-452.269481	124.174675	1105.550106	-158.436427	161.521421	1092.034563	-424.422539	179.736845	1094.088919	-192.960240	20.276465	1142.162971	-266.889713	20.471378	1159.734026	-349.087074	101.962353	1017.052493	-133.419647	85.812657	1038.446017	-491.287757	184.768867	957.759186	-121.686478	252.415819	901.500485	-127.359510	286.879539	825.634478	-107.397066	277.382096	918.227774	-151.375661	343.398839	697.983281	-143.432590	334.894878	678.720934	-248.012232	343.593277	588.767217	-121.868865	362.489805	502.912295	-137.800296	338.577983	419.873406	-134.261376	375.719692	505.060291	-175.084485	322.335246	302.366686	-142.436196	331.846708	323.158861	-222.132739	244.911581	267.875800	-183.448370	525.948244	199.964586	-188.100917	416.838082	208.029940	-126.438181	445.476622	220.716281	-231.903248	219.746481	994.872072	-497.083863	305.763021	980.580087	-493.530029	317.869597	1006.779418	-468.898880	373.123831	921.968677	-497.315583	454.559483	862.541844	-473.639792	452.231468	830.260245	-365.005454	399.397596	776.897285	-492.888690	349.318730	708.052774	-478.075720	268.451561	668.361184	-485.341954	363.012491	695.269801	-442.110732	175.934548	609.174612	-477.372817	189.379006	594.402504	-399.120505	95.516046	608.477686	-438.154638	289.235916	396.200981	-431.948967	202.978680	454.944059	-497.786776	-126.123612	871.987287	-307.619980	37.300497	86.731378	-514.268246	33.532848	83.474571	-114.289279	
752	3.7600	519.886377	1247.396940	-107.056906	543.581412	1254.227485	-444.777212	522.089728	1296.565820	-281.283161	447.844176	1174.983457	-280.761484	533.576760	997.328179	-14.462949	692.222197	886.747079	-108.253100	524.953429	1013.602866	-596.958608	688.516863	885.709376	-518.885294	3.420697	1119.047006	-306.804044	119.162217	1126.034862	-451.053028	124.983508	1105.104300	-157.478807	161.551040	1093.113838	-423.539563	180.683388	1093.427287	-191.813548	21.012476	1141.798993	-265.219351	20.533425	1159.743587	-347.273957	101.997365	1015.831784	-132.742091	85.962772	1040.317683	-490.830768	183.956936	955.523929	-120.754905	250.523492	898.075832	-126.495649	283.668652	821.661346	-106.721374	275.865926	914.464055	-150.544193	338.198158	693.523177	-142.837751	329.850894	674.354550	-247.472165	338.222755	584.524819	-121.299097	357.386019	498.736841	-137.272937	333.645541	415.659309	-133.740655	370.643949	500.938092	-174.385503	318.089656	298.220246	-141.889374	325.756659	317.077484	-221.345805	240.246526	265.155773	-183.151824	520.102267	192.028719	-188.243556	411.198096	202.064043	-126.501642	439.828747	214.208345	-231.918016	220.157713	998.449853	-496.679881	306.355388	985.524609	-493.204870	318.030802	1011.726508	-468.256554	374.845217	927.991789	-496.414377	457.203105	869.680092	-473.954256	455.230473	836.190682	-365.952980	402.832028	783.701224	-492.521908	352.831270	714.674571	-477.736378	272.151209	674.780110	-485.125899	366.579127	701.502836	-440.953373	179.819451	615.126353	-476.921035	193.198875	600.736008	-398.376945	99.378561	613.224426	-437.725204	296.307188	403.736874	-431.859543	208.677032	461.335860	-497.360240	-126.119306	872.027753	-307.547329	37.298916	86.810749	-514.213973	33.509050	83.472184	-114.276722	
753	3.7650	521.796399	1248.905331	-109.297182	541.953885	1256.325598	-447.648932	521.944045	1298.131164	-283.862484	448.454688	1176.095973	-282.569448	535.339045	999.186693	-14.905796	693.011520	886.911461	-108.247187	525.469282	1014.011445	-597.331801	689.195131	886.033603	-518.946856	4.033803	1118.624650	-305.304263	118.763176	1126.789497	-449.966274	125.804381	1104.560850	-156.540016	161.589683	1094.146342	-422.798793	181.620156	1092.675769	-190.752795	21.212714	1141.695619	-263.464378	20.674570	1159.834769	-345.560935	102.026853	1014.942751	-131.955539	86.110693	1042.026426	-490.286268	183.198037	953.425196	-119.770378	249.032637	894.890293	-125.799957	280.640793	817.681316	-106.085241	274.441071	910.889442	-149.583985	333.005529	689.491508	-142.130553	324.991459	670.313059	-247.001165	333.025153	580.677091	-120.728251	352.340291	494.972551	-136.747132	328.825634	411.863532	-133.228998	365.725626	497.127709	-173.821557	313.762658	294.374636	-141.478456	321.324338	313.357403	-220.781715	235.516655	262.757071	-182.885889	513.914854	184.193021	-188.354992	405.279745	196.392284	-126.525247	433.793524	207.726044	-232.297603	220.515197	1001.956535	-496.381821	306.818800	989.989191	-492.457434	318.190281	1016.747785	-468.061421	376.257377	933.798253	-496.253400	459.898970	876.571516	-474.178767	457.465004	844.144745	-364.442966	406.195248	790.325850	-492.439592	356.454419	721.105799	-477.389945	276.032792	680.799690	-484.809314	370.804403	709.190882	-442.721799	183.905168	620.690086	-476.425462	197.098502	606.320837	-397.789718	103.385594	617.685566	-437.333755	303.459827	411.202597	-431.833443	215.037005	467.488665	-497.190833	-126.112034	872.058035	-307.466552	37.289604	86.822890	-514.265411	33.534624	83.477884	-114.280464	
754	3.7700	523.692004	1250.445193	-111.496601	540.273046	1258.266363	-450.455491	521.799989	1299.649661	-286.457812	448.983366	1177.223401	-284.337563	537.239494	1000.938192	-15.414845	694.024917	887.063925	-108.325294	526.064365	1014.377311	-597.668943	690.040486	886.399054	-519.180164	4.356329	1118.759322	-303.664076	118.345999	1127.545696	-448.891942	126.601351	1104.162303	-155.674152	161.612743	1094.984338	-421.765718	182.533363	1091.982622	-189.564063	21.511423	1141.647497	-261.795921	20.684001	1159.846339	-343.825511	102.084365	1014.066609	-131.184443	86.255033	1043.632892	-489.747784	182.506540	951.430573	-118.940188	247.439195	891.857606	-125.046845	277.810382	814.153748	-105.563329	273.100413	907.568147	-148.841767	328.523595	685.684192	-141.735736	320.554640	666.582324	-246.529707	328.107866	577.119597	-120.245232	347.461026	491.512726	-136.249886	323.970912	408.286157	-132.824471	360.973416	493.648594	-173.262035	309.243541	290.932721	-141.231127	316.799533	309.933344	-220.320191	231.546264	259.947233	-183.662305	507.328685	176.808277	-188.468239	399.104222	191.125356	-126.571630	427.714961	202.287354	-232.226363	220.772858	1005.253968	-496.076914	307.237205	994.628915	-491.984931	318.013884	1021.250869	-467.283898	377.561352	939.244319	-496.083989	462.306961	883.483833	-474.335569	460.983747	850.505984	-364.560191	409.494751	796.837653	-492.217057	360.277089	727.785815	-477.469535	280.057612	686.446058	-484.567359	374.680425	715.401846	-442.585709	188.214994	625.819498	-475.994663	202.025533	611.751951	-397.458689	107.714077	621.626558	-436.962574	311.170728	418.666914	-432.159054	221.275411	472.679298	-496.160235	-126.106658	872.143203	-307.407374	37.302689	86.845551	-514.269733	33.514938	83.494553	-114.272499	
755	3.7750	525.588773	1251.811514	-113.874058	538.593338	1260.124336	-453.308362	521.576247	1301.038574	-289.089342	449.646758	1178.104345	-286.213721	539.324679	1002.604929	-15.943820	695.108510	887.169489	-108.363903	526.664549	1014.732741	-598.000913	690.911615	886.721472	-519.457075	4.909954	1118.375602	-302.444621	118.012227	1128.107825	-447.767049	127.407577	1103.653870	-154.819385	161.616379	1095.815612	-420.853568	183.362719	1091.205228	-188.474453	21.754695	1141.371114	-260.166386	20.663326	1159.827923	-342.230040	102.171631	1013.224830	-130.478709	86.332349	1045.158131	-489.205518	181.919644	949.578046	-118.032418	246.039815	889.116333	-124.215782	275.291732	810.836465	-105.017645	271.790034	904.554116	-147.879307	324.416379	682.230193	-141.437087	316.187726	663.206010	-246.207551	323.467411	573.897659	-119.804145	342.823641	488.197143	-135.823390	319.197048	405.019460	-132.394939	356.294175	490.404246	-172.868822	304.599096	287.878505	-140.844010	312.508249	306.657623	-219.905407	226.445494	258.438640	-183.445235	500.510028	169.608095	-188.489565	392.593880	186.132148	-126.598154	421.235951	196.751450	-232.550298	220.843297	1008.327123	-495.576460	307.599116	999.334658	-491.836583	317.797476	1025.402118	-466.001837	378.613845	944.708398	-495.847439	464.440565	890.304929	-474.418075	463.838545	857.130047	-364.373528	412.680584	802.977244	-491.704017	364.259734	733.723165	-477.621372	284.207179	691.725163	-484.215432	378.927603	721.150341	-441.328788	192.747441	630.390731	-475.606093	206.404953	617.074228	-396.496583	112.466603	625.337669	-436.840331	318.746427	425.150290	-431.822492	228.092164	477.975263	-495.958845	-126.104850	872.170400	-307.323510	37.290873	86.879903	-514.253458	33.519554	83.485159	-114.268056	
